<svg width="239" height="119" viewBox="0 0 239 119" fill="none" xmlns="http://www.w3.org/2000/svg">
<mask id="mask0_3617_5" style="mask-type:luminance" maskUnits="userSpaceOnUse" x="0" y="0" width="239" height="119">
<path d="M238.792 0H0V118.348H238.792V0Z" fill="white"/>
</mask>
<g mask="url(#mask0_3617_5)">
<path d="M126.62 9.30595C126.62 7.46629 127.165 5.66789 128.187 4.13819C129.209 2.60849 130.662 1.4162 132.361 0.7121C134.061 0.00800298 135.931 -0.176272 137.735 0.182579C139.54 0.541431 141.197 1.42729 142.498 2.72812C143.799 4.02896 144.685 5.68634 145.044 7.49066C145.402 9.29497 145.218 11.1652 144.514 12.8648C143.81 14.5644 142.618 16.017 141.088 17.0389C139.558 18.0608 137.76 18.6062 135.92 18.606C133.454 18.606 131.088 17.6262 129.344 15.8821C127.6 14.138 126.62 11.7725 126.62 9.30595Z" fill="white"/>
<path d="M225.324 43.3385L221.601 34.9581H224.181L219.657 26.5125H222.07L217.847 18.0668L213.624 26.5125H216.037L211.513 34.9581H214.072L210.339 43.2613L206.651 34.9581H209.231L204.708 26.5125H207.121L202.897 18.0668L198.674 26.5125H201.087L196.563 34.9581H199.122L195.477 43.0662L191.875 34.9581H194.456L189.932 26.5125H192.345L188.122 18.0668L183.898 26.5125H186.311L181.788 34.9581H184.338L180.694 43.0662L177.091 34.9581H179.672L175.149 26.5125H177.56L173.338 18.0668L169.115 26.5125H171.527L167.004 34.9581H169.562L165.924 43.0662L162.321 34.9581H164.902L160.38 26.5125H162.793L158.569 18.0668L154.341 26.5125H156.754L152.23 34.9581H154.788L151.021 43.3385H137.983L109.966 14.7275L100.307 24.5879L77.6902 1.41992L60.2722 19.1785L53.4491 12.3564L23.6432 43.3385H0V54.4691H28.3368L53.5491 28.1974L58.1447 32.793L79.2128 54.4512H95.0667L68.1387 27.0589L77.6734 17.3381L100.294 40.517L109.966 30.6417L133.308 54.471H238.788V43.3385H225.324Z" fill="white"/>
<path d="M4.42701 107.301C3.50302 107.301 3.04102 106.913 3.04102 106.137V105.915C3.20717 105.076 3.60064 104.298 4.17852 103.667C4.87809 102.811 5.27796 101.749 5.31702 100.644V74.565C5.27796 73.4599 4.87809 72.3979 4.17852 71.5415C3.60035 70.9106 3.20683 70.1328 3.04102 69.2932V69.0705C3.04102 68.2943 3.50302 67.9062 4.42701 67.9062H17.8564C25.9579 67.9062 32.1543 69.7282 36.4456 73.372C40.7369 77.0159 42.8819 81.8897 42.8806 87.9933C42.9651 90.6126 42.472 93.2184 41.4363 95.6257C40.4007 98.033 38.8479 100.183 36.8881 101.923C32.8925 105.512 27.5098 107.306 20.7402 107.304L4.42701 107.301ZM22.0183 102.974H23.6825C24.6769 103.003 25.6646 102.803 26.5692 102.389C27.4738 101.975 28.271 101.359 28.8988 100.587C30.2314 98.9972 30.8976 96.6298 30.8976 93.4849C30.9944 88.3657 29.8719 83.2969 27.6227 78.6972C25.4388 74.3868 22.7384 72.2312 19.5215 72.2306H19.3562C17.5049 72.2306 16.5809 73.1929 16.5842 75.1174V96.5925C16.4759 98.2836 16.9779 99.9574 17.9989 101.31C18.5004 101.873 19.1229 102.315 19.8197 102.604C20.5165 102.892 21.2695 103.018 22.0223 102.974" fill="white"/>
<path d="M76.544 83.5002C76.4688 83.9414 76.2432 84.343 75.9054 84.6367C75.4196 85.1833 74.992 85.7788 74.6293 86.4138C74.1912 87.182 73.9705 88.0551 73.9908 88.9392V100.647C74.0289 101.752 74.4289 102.815 75.1293 103.67C75.7069 104.302 76.1 105.079 76.2658 105.919V106.14C76.2658 106.917 75.8038 107.306 74.8798 107.306H66.1114C65.9075 107.334 65.7001 107.317 65.5033 107.257C65.3066 107.197 65.1253 107.095 64.972 106.957C64.8188 106.82 64.6972 106.651 64.6158 106.462C64.5344 106.273 64.4951 106.069 64.5006 105.863C62.712 107.249 60.4905 107.956 58.23 107.86C54.7831 107.916 51.4533 106.61 48.9626 104.227C46.3741 101.805 45.0798 98.3921 45.0798 93.9892C45.0183 92.1499 45.3336 90.3174 46.0063 88.6044C46.6789 86.8914 47.6947 85.334 48.9913 84.0279C50.1828 82.7797 51.6173 81.7887 53.2064 81.116C54.7954 80.4433 56.5054 80.1031 58.231 80.1164C60.484 80.0091 62.7033 80.6962 64.5016 82.0578C64.6864 80.8038 65.6487 80.3048 67.3885 80.5609L75.0461 81.5588C75.2615 81.5616 75.4738 81.6098 75.6693 81.7003C75.8647 81.7908 76.0389 81.9215 76.1803 82.0839C76.3218 82.2463 76.4274 82.4367 76.4903 82.6427C76.5531 82.8488 76.5717 83.0657 76.545 83.2794L76.544 83.5002ZM60.7277 104.92C61.0974 104.944 61.467 104.87 61.7984 104.704C62.1298 104.538 62.4112 104.288 62.6137 103.977C63.1356 103.17 63.3886 102.218 63.3364 101.258V89.8253C63.4333 88.0817 62.9979 86.3499 62.088 84.8595C61.794 84.3374 61.3727 83.8983 60.8632 83.5831C60.3538 83.2679 59.7728 83.0867 59.1744 83.0567C57.139 83.0567 56.0292 84.9802 55.8451 88.8274C55.7939 90.7283 55.8955 92.6303 56.149 94.5149C56.4224 96.8832 56.972 99.2113 57.7864 101.452C58.5996 103.691 59.58 104.846 60.7277 104.917" fill="white"/>
<path d="M104.869 80.391C106.681 80.1692 107.587 80.5946 107.587 81.6671V103.531C107.587 108.265 106.061 111.919 103.009 114.492C99.855 117.098 95.8609 118.469 91.7712 118.348C88.7429 118.419 85.7458 117.722 83.0592 116.323C80.5796 114.972 79.3404 113.058 79.3418 110.581C79.3302 110.04 79.4296 109.502 79.634 109.001C79.8383 108.5 80.1432 108.046 80.5298 107.667C80.9533 107.263 81.4547 106.949 82.0034 106.745C82.5521 106.541 83.1367 106.45 83.7215 106.479C84.7779 106.439 85.8161 106.762 86.6628 107.395C87.4192 107.979 88.0195 108.742 88.4101 109.614C88.7982 110.482 89.1589 111.36 89.4922 112.249C89.7883 113.077 90.2403 113.84 90.8238 114.497C91.0814 114.791 91.3966 115.029 91.7497 115.196C92.1029 115.362 92.4866 115.455 92.877 115.468C95.319 115.542 96.5582 112.268 96.5945 105.646C94.7261 106.834 92.5363 107.415 90.3248 107.31C87.7435 107.328 85.2561 106.343 83.3869 104.563C82.398 103.651 81.6186 102.536 81.1026 101.294C80.5866 100.052 80.3462 98.7133 80.3981 97.3695V88.2714C80.3646 87.1816 79.9642 86.1351 79.2616 85.3014C78.7036 84.7221 78.3102 84.0044 78.1221 83.2224V82.9996C78.1276 82.6554 78.2672 82.3269 78.5111 82.0839C78.773 81.8064 79.1303 81.6384 79.511 81.6136L88.718 80.392C90.6789 80.1702 91.6597 80.5956 91.6603 81.6681L91.4376 98.5387C91.4 101.684 92.1768 103.255 93.768 103.254C94.1805 103.236 94.5815 103.112 94.9316 102.893C95.2818 102.675 95.5692 102.369 95.7659 102.006C96.3351 101.122 96.6248 100.087 96.5974 99.0357V88.2714C96.5614 87.1772 96.1504 86.1286 95.4332 85.3014C94.8637 84.7265 94.4606 84.0081 94.267 83.2224V82.9996C94.2715 82.6554 94.4109 82.3266 94.6551 82.0839C94.9171 81.806 95.2748 81.638 95.656 81.6136L104.869 80.391Z" fill="white"/>
<path d="M119.017 107.303C118.093 107.303 117.631 106.915 117.631 106.138V105.917C117.797 105.078 118.191 104.3 118.769 103.669C119.469 102.812 119.868 101.751 119.907 100.646V74.566C119.868 73.461 119.469 72.399 118.769 71.5425C118.191 70.9115 117.797 70.1333 117.631 69.2932V69.0715C117.631 68.2947 118.093 67.9062 119.017 67.9062H132.501C133.425 67.9062 133.887 68.2947 133.887 69.0715V69.2932C133.698 70.1483 133.264 70.9299 132.638 71.5425C131.881 72.373 131.439 73.443 131.39 74.566V85.1095H144.043L144.099 74.566C144.064 73.465 143.674 72.4049 142.989 71.5425C142.423 70.9064 142.04 70.1292 141.88 69.2932V69.0715C141.88 68.2947 142.323 67.9062 143.21 67.9062H156.696C157.62 67.9062 158.082 68.2947 158.082 69.0715V69.2932C157.887 70.1519 157.444 70.9342 156.807 71.5425C156.035 72.3659 155.582 73.4382 155.531 74.566V100.648C155.582 101.775 156.035 102.848 156.807 103.671C157.444 104.279 157.887 105.061 158.082 105.919V106.141C158.082 106.918 157.62 107.306 156.696 107.306H143.21C142.324 107.306 141.881 106.918 141.88 106.141V105.917C142.04 105.082 142.423 104.305 142.989 103.669C143.674 102.807 144.064 101.747 144.099 100.646L144.043 89.8793H131.392L131.335 100.645C131.387 101.772 131.84 102.844 132.612 103.668C133.249 104.276 133.693 105.058 133.888 105.916V106.138C133.888 106.915 133.426 107.303 132.502 107.303H119.017Z" fill="white"/>
<path d="M162.314 107.305C161.39 107.305 160.928 106.917 160.928 106.14V105.918C161.094 105.079 161.487 104.301 162.064 103.67C162.764 102.814 163.163 101.752 163.202 100.647V91.7119C163.169 90.6219 162.768 89.5752 162.064 88.7419C161.507 88.1622 161.115 87.4446 160.928 86.6629V86.4411C160.928 85.9593 161.39 85.4973 162.314 85.0551L171.803 80.3932C172.097 80.2153 172.43 80.1123 172.774 80.0931C173.117 80.074 173.46 80.1393 173.772 80.2833C174.013 80.422 174.211 80.6251 174.344 80.8699C174.476 81.1147 174.537 81.3915 174.521 81.6693V100.649C174.573 101.776 175.025 102.849 175.798 103.672C176.434 104.28 176.878 105.062 177.075 105.92V106.142C177.075 106.918 176.61 107.307 175.689 107.307L162.314 107.305Z" fill="white"/>
<path d="M209.591 102.254C210.118 102.814 210.704 103.316 211.338 103.753C212.355 104.529 212.864 105.25 212.865 105.917V106.139C212.865 106.915 212.403 107.304 211.479 107.304H198.711C197.787 107.304 197.325 106.897 197.325 106.083V105.86C197.406 105.195 197.697 104.572 198.157 104.084C198.713 103.383 198.824 102.772 198.491 102.253L194.807 96.3129C194.672 96.0916 194.478 95.9123 194.247 95.7951C194.016 95.6779 193.756 95.6275 193.498 95.6496H193.476C193.121 95.6778 192.789 95.8381 192.547 96.0989C192.304 96.3597 192.168 96.702 192.165 97.0584V100.646C192.216 101.774 192.668 102.846 193.441 103.67C194.078 104.277 194.522 105.059 194.718 105.918V106.14C194.718 106.916 194.256 107.305 193.332 107.305H179.958C179.034 107.305 178.572 106.916 178.572 106.14V105.918C178.738 105.079 179.131 104.301 179.709 103.67C180.408 102.813 180.807 101.751 180.846 100.646V76.8386C180.784 75.7008 180.276 74.6334 179.431 73.8686C178.488 72.8892 178.016 72.1962 178.016 71.7896V71.5698C178.016 71.088 178.478 70.626 179.402 70.1838L189.446 65.5219C189.747 65.3583 190.082 65.2681 190.424 65.2586C190.766 65.2492 191.106 65.3207 191.415 65.4675C191.652 65.5976 191.848 65.7911 191.98 66.0264C192.113 66.2616 192.177 66.5292 192.166 66.799V91.3243C193.534 91.2176 194.834 90.6844 195.883 89.7997C196.767 89.0246 197.46 88.056 197.908 86.9693C198.333 85.9133 198.741 84.8682 199.13 83.8339C199.496 82.8306 200.106 81.9341 200.905 81.2253C201.8 80.4879 202.938 80.1118 204.096 80.171C204.753 80.1234 205.413 80.2122 206.033 80.4318C206.654 80.6514 207.223 80.9971 207.704 81.4471C208.116 81.8948 208.437 82.4195 208.646 82.9911C208.855 83.5628 208.95 84.1701 208.924 84.7784C208.86 86.2867 208.316 87.7349 207.37 88.9117C206.205 90.4488 204.73 91.7246 203.042 92.6568L209.591 102.254Z" fill="white"/>
<path d="M235.582 98.3166C235.741 98.1116 235.961 97.9632 236.211 97.8933C236.46 97.8234 236.726 97.8358 236.968 97.9285C237.217 98.0133 237.43 98.1804 237.571 98.4023C237.713 98.6242 237.774 98.8876 237.746 99.1492C237.746 101.073 236.766 103.006 234.805 104.948C232.844 106.889 229.995 107.86 226.258 107.86C224.387 107.93 222.521 107.622 220.772 106.955C219.022 106.287 217.425 105.274 216.076 103.976C214.748 102.65 213.71 101.063 213.027 99.3148C212.344 97.5668 212.031 95.6961 212.108 93.821C212.043 91.9829 212.374 90.1523 213.078 88.4531C213.782 86.7538 214.842 85.2255 216.188 83.9715C218.831 81.468 222.341 80.0859 225.982 80.1154C228.91 79.9337 231.816 80.7237 234.249 82.3627C235.22 83.0231 236.012 83.9135 236.554 84.9546C237.096 85.9956 237.372 87.1548 237.357 88.3285C237.343 89.3125 237.115 90.2817 236.689 91.1688C236.262 92.0559 235.648 92.8396 234.889 93.4656C233.089 95.0331 230.852 96.0113 228.48 96.2683C227.029 96.488 225.563 96.5991 224.096 96.6009C224.705 97.6785 225.594 98.572 226.668 99.1871C227.742 99.8023 228.963 100.116 230.2 100.097C232.604 100.097 234.398 99.5049 235.582 98.3215M224.762 83.3379C224.329 83.3609 223.912 83.5096 223.562 83.766C223.212 84.0224 222.945 84.3752 222.792 84.7813C222.243 85.9801 221.986 87.2923 222.044 88.6096C222.026 90.2784 222.251 91.9409 222.712 93.5448C223.028 93.5566 223.344 93.5377 223.656 93.4884C226.098 93.1188 227.319 91.084 227.319 87.384C227.355 86.3698 227.095 85.3671 226.571 84.4982C226.399 84.1627 226.142 83.8784 225.826 83.6737C225.509 83.469 225.145 83.3511 224.768 83.332" fill="white"/>
<path d="M172.857 76.7594C171.414 77.9089 169.624 78.5349 167.779 78.5349C165.934 78.5349 164.144 77.9089 162.701 76.7594C162.072 76.2173 161.569 75.5435 161.229 74.7856C160.889 74.0277 160.719 73.2044 160.732 72.3737C160.718 71.5472 160.887 70.7278 161.228 69.9746C161.568 69.2214 162.071 68.553 162.701 68.0177C164.152 66.8861 165.939 66.2715 167.779 66.2715C169.619 66.2715 171.406 66.8861 172.857 68.0177C173.487 68.553 173.99 69.2214 174.331 69.9746C174.671 70.7278 174.841 71.5472 174.827 72.3737C174.84 73.2044 174.67 74.0278 174.329 74.7856C173.989 75.5434 173.486 76.2173 172.857 76.7594Z" fill="white"/>
</g>
</svg>
