<svg width="512" height="512" viewBox="0 0 512 512" fill="none" xmlns="http://www.w3.org/2000/svg">
<rect width="512" height="512" rx="256" fill="#024237"/>
<mask id="mask0_3617_39" style="mask-type:luminance" maskUnits="userSpaceOnUse" x="64" y="161" width="384" height="190">
<path d="M447.332 161.174H64.667V350.826H447.332V161.174Z" fill="white"/>
</mask>
<g mask="url(#mask0_3617_39)">
<path d="M267.576 176.086C267.576 173.138 268.45 170.256 270.087 167.805C271.725 165.354 274.053 163.443 276.777 162.315C279.5 161.186 282.497 160.891 285.389 161.466C288.28 162.041 290.936 163.461 293.021 165.545C295.105 167.63 296.525 170.286 297.1 173.177C297.675 176.069 297.38 179.066 296.251 181.789C295.123 184.513 293.212 186.841 290.761 188.478C288.31 190.116 285.428 190.99 282.48 190.99C278.527 190.99 274.736 189.419 271.941 186.625C269.146 183.83 267.576 180.039 267.576 176.086Z" fill="white"/>
<path d="M425.75 230.624L419.783 217.194H423.919L416.669 203.66H420.535L413.769 190.126L407.001 203.66H410.867L403.618 217.194H407.718L401.737 230.5L395.825 217.194H399.961L392.713 203.66H396.579L389.811 190.126L383.043 203.66H386.909L379.661 217.194H383.76L377.92 230.188L372.147 217.194H376.283L369.035 203.66H372.901L366.133 190.126L359.365 203.66H363.231L355.983 217.194H360.069L354.23 230.188L348.456 217.194H352.592L345.344 203.66H349.208L342.442 190.126L335.674 203.66H339.54L332.292 217.194H336.391L330.561 230.188L324.788 217.194H328.924L321.677 203.66H325.543L318.775 190.126L311.999 203.66H315.865L308.617 217.194H312.716L306.68 230.624H285.786L240.888 184.775L225.409 200.576L189.166 163.449L161.253 191.907L150.319 180.975L102.555 230.624H64.667V248.461H110.077L150.48 206.36L157.844 213.725L191.606 248.432H217.012L173.86 204.536L189.139 188.958L225.388 226.102L240.888 210.277L278.294 248.464H447.326V230.624H425.75Z" fill="white"/>
<path d="M71.7611 333.125C70.2804 333.125 69.54 332.503 69.54 331.259V330.904C69.8063 329.559 70.4368 328.312 71.3629 327.301C72.484 325.929 73.1248 324.227 73.1874 322.456V280.665C73.1248 278.894 72.484 277.192 71.3629 275.82C70.4364 274.809 69.8058 273.562 69.54 272.217V271.86C69.54 270.616 70.2804 269.994 71.7611 269.994H93.2817C106.264 269.994 116.194 272.914 123.071 278.753C129.948 284.592 133.385 292.403 133.383 302.184C133.518 306.381 132.728 310.557 131.069 314.415C129.409 318.272 126.921 321.718 123.78 324.506C117.377 330.257 108.751 333.132 97.9031 333.13L71.7611 333.125ZM99.9513 326.19H102.618C104.212 326.237 105.795 325.917 107.244 325.254C108.694 324.59 109.971 323.602 110.977 322.365C113.113 319.817 114.18 316.024 114.18 310.984C114.336 302.78 112.537 294.658 108.932 287.287C105.433 280.379 101.105 276.925 95.9502 276.924H95.6852C92.7185 276.924 91.2378 278.466 91.2431 281.55V315.964C91.0695 318.674 91.874 321.356 93.5101 323.524C94.3137 324.426 95.3113 325.135 96.4279 325.597C97.5446 326.059 98.7513 326.262 99.9576 326.19" fill="white"/>
<path d="M187.329 294.983C187.209 295.69 186.847 296.334 186.306 296.804C185.527 297.68 184.842 298.635 184.261 299.652C183.559 300.883 183.205 302.282 183.238 303.699V322.461C183.299 324.232 183.94 325.934 185.062 327.306C185.988 328.317 186.618 329.564 186.883 330.909V331.264C186.883 332.509 186.143 333.132 184.662 333.132H170.611C170.284 333.177 169.952 333.15 169.636 333.054C169.321 332.957 169.031 332.793 168.785 332.573C168.539 332.353 168.345 332.083 168.214 331.78C168.084 331.477 168.021 331.15 168.03 330.82C165.163 333.04 161.603 334.174 157.981 334.02C152.457 334.109 147.121 332.017 143.13 328.198C138.982 324.316 136.908 318.847 136.908 311.792C136.809 308.844 137.314 305.908 138.392 303.163C139.47 300.417 141.098 297.922 143.176 295.829C145.085 293.828 147.384 292.24 149.93 291.162C152.477 290.084 155.217 289.539 157.982 289.56C161.593 289.389 165.149 290.49 168.031 292.672C168.327 290.662 169.869 289.862 172.657 290.273L184.929 291.872C185.274 291.876 185.614 291.954 185.927 292.099C186.241 292.244 186.52 292.453 186.746 292.713C186.973 292.974 187.142 293.279 187.243 293.609C187.344 293.939 187.374 294.287 187.331 294.629L187.329 294.983ZM161.983 329.308C162.576 329.347 163.168 329.228 163.699 328.962C164.23 328.697 164.681 328.295 165.006 327.798C165.842 326.504 166.248 324.978 166.164 323.44V305.119C166.319 302.325 165.621 299.55 164.163 297.161C163.692 296.325 163.017 295.621 162.201 295.116C161.384 294.611 160.453 294.32 159.494 294.272C156.232 294.272 154.454 297.355 154.159 303.52C154.077 306.566 154.24 309.614 154.646 312.634C155.084 316.429 155.965 320.16 157.27 323.751C158.573 327.339 160.144 329.19 161.983 329.303" fill="white"/>
<path d="M232.719 290.001C235.624 289.646 237.076 290.328 237.076 292.046V327.084C237.076 334.67 234.63 340.525 229.738 344.648C224.685 348.825 218.284 351.021 211.73 350.827C206.877 350.941 202.074 349.825 197.769 347.583C193.796 345.418 191.81 342.351 191.812 338.381C191.793 337.514 191.953 336.653 192.28 335.849C192.608 335.046 193.096 334.319 193.716 333.712C194.394 333.064 195.198 332.561 196.077 332.234C196.957 331.907 197.893 331.762 198.831 331.808C200.523 331.743 202.187 332.261 203.544 333.276C204.756 334.212 205.718 335.433 206.344 336.831C206.966 338.222 207.544 339.63 208.078 341.054C208.553 342.381 209.277 343.604 210.212 344.657C210.625 345.128 211.13 345.509 211.696 345.776C212.262 346.043 212.877 346.192 213.502 346.212C217.416 346.332 219.401 341.085 219.46 330.473C216.465 332.376 212.956 333.307 209.412 333.139C205.276 333.168 201.29 331.59 198.294 328.737C196.71 327.276 195.461 325.489 194.634 323.499C193.807 321.509 193.422 319.363 193.505 317.21V302.63C193.451 300.884 192.809 299.206 191.683 297.87C190.789 296.942 190.159 295.792 189.857 294.539V294.182C189.866 293.63 190.09 293.104 190.481 292.714C190.901 292.27 191.473 292 192.083 291.961L206.838 290.003C209.98 289.648 211.551 290.329 211.553 292.048L211.196 319.083C211.135 324.123 212.38 326.642 214.93 326.64C215.591 326.611 216.234 326.412 216.795 326.062C217.356 325.711 217.817 325.221 218.132 324.639C219.044 323.222 219.508 321.564 219.464 319.88V302.63C219.407 300.876 218.748 299.196 217.599 297.87C216.686 296.949 216.04 295.798 215.73 294.539V294.182C215.737 293.63 215.96 293.103 216.352 292.714C216.772 292.269 217.345 292 217.956 291.961L232.719 290.001Z" fill="white"/>
<path d="M255.392 333.128C253.911 333.128 253.171 332.506 253.171 331.261V330.907C253.437 329.561 254.068 328.315 254.995 327.304C256.116 325.932 256.756 324.23 256.818 322.459V280.666C256.756 278.896 256.116 277.194 254.995 275.821C254.068 274.81 253.437 273.563 253.171 272.217V271.861C253.171 270.617 253.911 269.994 255.392 269.994H277C278.481 269.994 279.221 270.617 279.221 271.861V272.217C278.918 273.587 278.223 274.84 277.22 275.821C276.007 277.152 275.298 278.867 275.22 280.666V297.562H295.497L295.587 280.666C295.529 278.902 294.905 277.203 293.807 275.821C292.901 274.802 292.287 273.556 292.03 272.217V271.861C292.03 270.617 292.741 269.994 294.162 269.994H315.773C317.254 269.994 317.994 270.617 317.994 271.861V272.217C317.682 273.593 316.971 274.846 315.951 275.821C314.713 277.141 313.988 278.859 313.906 280.666V322.462C313.988 324.269 314.713 325.988 315.951 327.307C316.971 328.282 317.681 329.535 317.994 330.91V331.266C317.994 332.51 317.254 333.133 315.773 333.133H294.162C292.742 333.133 292.031 332.51 292.03 331.266V330.907C292.287 329.568 292.901 328.323 293.807 327.304C294.905 325.922 295.529 324.223 295.587 322.459L295.497 305.206H275.223L275.133 322.457C275.216 324.264 275.941 325.982 277.178 327.303C278.199 328.276 278.91 329.53 279.222 330.905V331.261C279.222 332.506 278.482 333.128 277.001 333.128H255.392Z" fill="white"/>
<path d="M324.776 333.131C323.295 333.131 322.555 332.508 322.555 331.263V330.908C322.821 329.563 323.451 328.317 324.376 327.305C325.497 325.933 326.137 324.231 326.199 322.46V308.142C326.146 306.395 325.503 304.718 324.376 303.383C323.484 302.453 322.855 301.304 322.555 300.051V299.696C322.555 298.923 323.295 298.183 324.776 297.474L339.982 290.004C340.454 289.719 340.988 289.554 341.538 289.523C342.088 289.492 342.637 289.597 343.138 289.828C343.524 290.05 343.841 290.375 344.054 290.768C344.266 291.16 344.364 291.604 344.339 292.049V322.463C344.421 324.27 345.146 325.989 346.384 327.308C347.404 328.283 348.116 329.536 348.43 330.911V331.266C348.43 332.51 347.686 333.134 346.209 333.134L324.776 333.131Z" fill="white"/>
<path d="M400.537 325.036C401.382 325.934 402.321 326.739 403.337 327.438C404.967 328.682 405.782 329.838 405.783 330.906V331.262C405.783 332.507 405.043 333.129 403.562 333.129H383.101C381.621 333.129 380.88 332.477 380.88 331.173V330.816C381.01 329.749 381.477 328.752 382.214 327.97C383.105 326.845 383.283 325.867 382.749 325.035L376.846 315.516C376.63 315.161 376.319 314.874 375.948 314.686C375.578 314.498 375.162 314.418 374.748 314.453H374.714C374.144 314.498 373.613 314.755 373.224 315.173C372.834 315.591 372.616 316.14 372.611 316.711V322.46C372.693 324.267 373.419 325.986 374.656 327.305C375.678 328.279 376.389 329.532 376.703 330.908V331.263C376.703 332.508 375.963 333.131 374.482 333.131H353.05C351.569 333.131 350.829 332.508 350.829 331.263V330.908C351.095 329.563 351.725 328.317 352.65 327.305C353.771 325.933 354.411 324.231 354.473 322.46V284.308C354.374 282.485 353.56 280.774 352.206 279.549C350.694 277.979 349.938 276.869 349.938 276.217V275.865C349.938 275.093 350.678 274.353 352.159 273.644L368.255 266.173C368.737 265.911 369.274 265.766 369.822 265.751C370.371 265.736 370.915 265.851 371.41 266.086C371.79 266.294 372.103 266.605 372.316 266.982C372.528 267.359 372.631 267.787 372.613 268.22V307.522C374.806 307.351 376.889 306.496 378.57 305.078C379.986 303.836 381.097 302.284 381.815 300.543C382.497 298.85 383.15 297.176 383.774 295.518C384.36 293.91 385.338 292.474 386.618 291.338C388.052 290.156 389.876 289.554 391.732 289.648C392.784 289.572 393.841 289.714 394.836 290.066C395.831 290.418 396.742 290.972 397.513 291.693C398.174 292.411 398.687 293.252 399.023 294.168C399.358 295.084 399.51 296.057 399.469 297.032C399.366 299.449 398.494 301.77 396.978 303.655C395.111 306.119 392.748 308.163 390.042 309.657L400.537 325.036Z" fill="white"/>
<path d="M442.188 318.726C442.442 318.398 442.796 318.16 443.196 318.048C443.596 317.936 444.021 317.955 444.409 318.104C444.808 318.24 445.149 318.508 445.376 318.863C445.602 319.219 445.701 319.641 445.656 320.06C445.656 323.143 444.085 326.241 440.943 329.352C437.8 332.464 433.235 334.02 427.247 334.02C424.248 334.131 421.258 333.638 418.455 332.569C415.651 331.499 413.092 329.876 410.93 327.796C408.802 325.67 407.138 323.127 406.044 320.326C404.949 317.524 404.448 314.527 404.571 311.522C404.467 308.576 404.997 305.643 406.125 302.92C407.253 300.197 408.953 297.748 411.109 295.738C415.345 291.726 420.97 289.511 426.804 289.559C431.496 289.267 436.153 290.533 440.053 293.16C441.608 294.218 442.877 295.645 443.746 297.313C444.615 298.982 445.057 300.839 445.033 302.72C445.01 304.297 444.644 305.85 443.961 307.272C443.279 308.693 442.294 309.949 441.077 310.952C438.193 313.464 434.609 315.032 430.807 315.444C428.481 315.796 426.133 315.974 423.782 315.977C424.758 317.704 426.182 319.135 427.903 320.121C429.625 321.107 431.58 321.61 433.564 321.579C437.416 321.579 440.291 320.63 442.188 318.734M424.849 294.723C424.155 294.759 423.487 294.998 422.926 295.409C422.365 295.819 421.937 296.385 421.692 297.036C420.812 298.957 420.401 301.059 420.493 303.171C420.464 305.845 420.825 308.509 421.564 311.079C422.07 311.098 422.577 311.068 423.077 310.989C426.991 310.396 428.947 307.136 428.947 301.207C429.005 299.581 428.588 297.974 427.748 296.582C427.473 296.044 427.061 295.589 426.554 295.261C426.047 294.933 425.462 294.744 424.859 294.713" fill="white"/>
<path d="M341.671 284.182C339.359 286.024 336.49 287.027 333.534 287.027C330.578 287.027 327.709 286.024 325.397 284.182C324.388 283.313 323.583 282.233 323.038 281.019C322.492 279.804 322.221 278.485 322.242 277.154C322.219 275.829 322.49 274.516 323.035 273.309C323.581 272.102 324.388 271.031 325.397 270.173C327.722 268.36 330.586 267.375 333.534 267.375C336.482 267.375 339.346 268.36 341.671 270.173C342.681 271.031 343.487 272.102 344.033 273.309C344.579 274.516 344.851 275.829 344.828 277.154C344.849 278.485 344.577 279.804 344.031 281.019C343.486 282.233 342.68 283.313 341.671 284.182Z" fill="white"/>
</g>
</svg>
